<svg width="135" height="33" viewBox="0 0 135 33" fill="none" xmlns="http://www.w3.org/2000/svg">
<g clip-path="url(#clip0)">
<path d="M7.93873 30.0247H6.81167V25.6589C6.81167 25.2834 6.81167 24.8609 6.85863 24.3445C6.81167 24.6262 6.71775 24.8609 6.67079 25.0017L4.65148 30.0247H3.90011L1.8808 25.0487C1.83384 24.9078 1.78688 24.6731 1.69296 24.3915C1.69296 24.6262 1.73992 25.0956 1.73992 25.7059V30.0716H0.706787V23.3118H2.30345L4.08795 27.8183C4.22884 28.1469 4.32276 28.4286 4.36972 28.5694H4.41668C4.5106 28.1939 4.60452 27.9592 4.69844 27.7714L6.48295 23.3118H7.98569V30.0247H7.93873Z" fill="white"/>
<path d="M13.1044 30.0245H12.0243V29.2734C11.6956 29.8367 11.226 30.1184 10.5685 30.1184C10.0989 30.1184 9.72321 29.9776 9.44144 29.7428C9.15968 29.5081 9.0188 29.1326 9.0188 28.7101C9.0188 27.8182 9.53537 27.2548 10.5685 27.114L11.9773 26.9262C11.9773 26.2221 11.6486 25.8935 10.9911 25.8935C10.4276 25.8935 9.91105 26.0813 9.44144 26.5038V25.5649C9.95801 25.2832 10.5215 25.0955 11.179 25.0955C12.4 25.0955 13.0105 25.7057 13.0105 26.8793V30.0245H13.1044ZM12.0243 27.6773L10.9911 27.8182C10.6624 27.8651 10.4276 27.9121 10.2867 28.0529C10.1459 28.1468 10.0519 28.3815 10.0519 28.6162C10.0519 28.804 10.1459 28.9918 10.2867 29.1326C10.4276 29.2734 10.6155 29.3204 10.8503 29.3204C11.179 29.3204 11.4608 29.2265 11.6956 28.9917C11.9304 28.757 12.0243 28.4754 12.0243 28.0998V27.6773Z" fill="white"/>
<path d="M18.4578 25.2363L16.2976 30.8226C15.828 31.8084 15.2175 32.3248 14.4192 32.3248C14.1844 32.3248 13.9965 32.3248 13.8557 32.2778V31.3859C14.0435 31.4328 14.1844 31.4798 14.3253 31.4798C14.7479 31.4798 15.0297 31.292 15.2175 30.8695L15.5462 30.0715L13.6208 25.2833H14.8418L15.9689 28.7571C15.9689 28.804 16.0158 28.8979 16.0628 29.0857H16.1098C16.1098 28.9918 16.1567 28.8979 16.2037 28.7571L17.4247 25.2363H18.4578V25.2363Z" fill="white"/>
<path d="M23.9993 23.1709V30.0716H22.9192V24.4853C22.7313 24.6261 22.4965 24.767 22.2617 24.8609C22.0269 24.9547 21.7921 25.0486 21.4634 25.1425V24.2037C21.6512 24.1567 21.8391 24.0628 21.9799 24.0159C22.1678 23.9689 22.3087 23.875 22.4965 23.7812C22.6844 23.6873 22.8252 23.5934 23.0131 23.4995C23.2009 23.4056 23.3418 23.2648 23.5296 23.1709H23.9993Z" fill="white"/>
<path d="M29.7284 26.316C29.7284 26.9732 29.6345 27.5835 29.4936 28.0529C29.3528 28.5224 29.1649 28.9449 28.8831 29.2735C28.6483 29.6021 28.3196 29.8368 27.9909 29.9776C27.6622 30.1184 27.2865 30.2123 26.8638 30.2123C26.723 30.2123 26.629 30.2123 26.4882 30.2123C26.3473 30.2123 26.2534 30.1654 26.1125 30.1654C26.0185 30.1184 25.8777 30.1184 25.7837 30.0715C25.6898 30.0245 25.5959 30.0245 25.5489 29.9776V28.8979C25.5959 28.9449 25.6898 28.9918 25.7837 29.0387C25.8777 29.0857 25.9716 29.1326 26.1125 29.1326C26.2064 29.1796 26.3473 29.1796 26.4882 29.2265C26.629 29.2265 26.723 29.2735 26.8638 29.2735C27.1456 29.2735 27.3804 29.2265 27.5682 29.1326C27.8031 29.0387 27.9909 28.8979 28.1318 28.6632C28.2727 28.4754 28.4135 28.1938 28.5075 27.9121C28.6014 27.6304 28.6483 27.2549 28.6483 26.8793C28.6014 26.9732 28.5075 27.0671 28.4135 27.161C28.3196 27.2549 28.2257 27.3488 28.0848 27.3957C27.9439 27.4427 27.85 27.5366 27.7091 27.5366C27.5682 27.5835 27.4274 27.5835 27.2395 27.5835C26.9578 27.5835 26.676 27.5366 26.4412 27.4427C26.2064 27.3488 25.9716 27.208 25.8307 27.0202C25.6898 26.8324 25.502 26.5977 25.4081 26.363C25.3141 26.1283 25.2202 25.7997 25.2202 25.471C25.2202 25.1424 25.2672 24.8138 25.4081 24.5322C25.502 24.2505 25.6898 24.0158 25.8777 23.828C26.0655 23.6403 26.3003 23.4525 26.5821 23.3586C26.8638 23.2647 27.1456 23.2178 27.4743 23.2178C27.7561 23.2178 28.0848 23.2647 28.3196 23.4055C28.6014 23.4994 28.8362 23.6872 29.024 23.9689C29.2119 24.2036 29.3997 24.5322 29.4936 24.9547C29.5876 25.3772 29.7284 25.7527 29.7284 26.316ZM28.6014 25.5649C28.6014 25.3302 28.5544 25.1424 28.5075 24.9547C28.4605 24.7669 28.3666 24.6261 28.2727 24.4852C28.1787 24.3444 28.0379 24.2505 27.897 24.1566C27.7561 24.0628 27.6152 24.0628 27.4274 24.0628C27.2865 24.0628 27.1456 24.1097 27.0047 24.1566C26.8638 24.2036 26.7699 24.2975 26.629 24.4383C26.5351 24.5322 26.4412 24.673 26.3942 24.8608C26.3473 25.0016 26.3003 25.1894 26.3003 25.3772C26.3003 25.6119 26.3473 25.7997 26.3942 25.9405C26.4412 26.0813 26.5351 26.2221 26.629 26.363C26.723 26.4569 26.8638 26.5507 27.0047 26.5977C27.1456 26.6446 27.3334 26.6916 27.4743 26.6916C27.6152 26.6916 27.7561 26.6446 27.897 26.5977C28.0379 26.5507 28.1318 26.4569 28.2257 26.363C28.3196 26.2691 28.4135 26.1283 28.4605 26.0344C28.5075 25.9405 28.6014 25.7527 28.6014 25.5649Z" fill="white"/>
<path d="M35.3637 27.8183H30.5737V27.0203H35.3637V27.8183V27.8183Z" fill="white"/>
<path d="M40.0128 30.0245H35.7864V29.5082C35.7864 29.2735 35.8333 29.0857 35.8803 28.8979C35.9273 28.7101 36.0212 28.5224 36.1151 28.3815C36.209 28.1938 36.3499 28.0529 36.4908 27.9121C36.6317 27.7713 36.7725 27.6304 36.9134 27.4896C37.0543 27.3488 37.2422 27.208 37.383 27.1141C37.5239 26.9732 37.7118 26.8793 37.8526 26.7385C37.9935 26.5977 38.1344 26.5038 38.2283 26.363C38.3692 26.2691 38.4631 26.1283 38.5571 25.9874C38.651 25.8466 38.6979 25.7527 38.7449 25.6119C38.7919 25.4711 38.7919 25.3302 38.7919 25.1424C38.7919 24.9547 38.7449 24.8138 38.6979 24.673C38.651 24.5322 38.557 24.4383 38.4631 24.3444C38.3692 24.2505 38.2283 24.2036 38.1344 24.1566C37.9935 24.1097 37.8526 24.1097 37.7118 24.1097C37.43 24.1097 37.1482 24.1566 36.8665 24.2975C36.5847 24.4383 36.3029 24.6261 36.0212 24.8608V23.828C36.1621 23.7341 36.3029 23.6403 36.4438 23.5464C36.5847 23.4525 36.7256 23.4055 36.8665 23.3586C37.0074 23.3117 37.1952 23.2647 37.3361 23.2647C37.5239 23.2178 37.6648 23.2178 37.8526 23.2178C38.1344 23.2178 38.4162 23.2647 38.6979 23.3586C38.9327 23.4525 39.1675 23.5464 39.3554 23.7341C39.5432 23.875 39.6841 24.0628 39.778 24.2975C39.8719 24.5322 39.9189 24.8138 39.9189 25.0955C39.9189 25.3772 39.8719 25.6119 39.825 25.8466C39.778 26.0813 39.6841 26.2691 39.5432 26.4569C39.4023 26.6446 39.2615 26.8324 39.0736 26.9732C38.8858 27.161 38.6979 27.3018 38.4631 27.4896C38.2753 27.6304 38.0874 27.7713 37.8996 27.9121C37.7118 28.0529 37.5709 28.1938 37.43 28.3346C37.2891 28.4754 37.1482 28.6162 37.1013 28.7571C37.0074 28.8979 36.9604 29.0387 36.9604 29.1796H40.0128V30.0245V30.0245Z" fill="white"/>
<path d="M43.0654 30.1654C42.361 30.1654 41.7975 29.8838 41.4218 29.3205C41.0461 28.7572 40.8113 27.9122 40.8113 26.8325C40.8113 25.6589 40.9991 24.72 41.4218 24.1098C41.8444 23.4995 42.4079 23.1709 43.2063 23.1709C44.709 23.1709 45.4134 24.3445 45.4134 26.6447C45.4134 27.7713 45.2256 28.6633 44.8029 29.2735C44.3803 29.8368 43.8168 30.1654 43.0654 30.1654ZM43.1593 24.0628C42.361 24.0628 41.9383 24.9547 41.9383 26.7855C41.9383 28.4755 42.361 29.3205 43.1593 29.3205C43.9576 29.3205 44.3333 28.4755 44.3333 26.7386C44.3333 24.9547 43.9107 24.0628 43.1593 24.0628Z" fill="white"/>
<path d="M47.4325 28.8979L46.6811 31.2451H45.8828L46.3994 28.8979H47.4325Z" fill="white"/>
<path d="M55.369 30.0245H51.1426V29.5082C51.1426 29.2735 51.1895 29.0857 51.2365 28.8979C51.2835 28.7101 51.3774 28.5224 51.4713 28.3815C51.5652 28.1938 51.7061 28.0529 51.847 27.9121C51.9879 27.7713 52.1288 27.6304 52.2696 27.4896C52.4105 27.3488 52.5984 27.208 52.7392 27.1141C52.8801 26.9732 53.068 26.8793 53.2088 26.7385C53.3497 26.5977 53.4906 26.5038 53.5845 26.363C53.7254 26.2691 53.8193 26.1283 53.9133 25.9874C54.0072 25.8466 54.0541 25.7527 54.1011 25.6119C54.1481 25.4711 54.1481 25.3302 54.1481 25.1424C54.1481 24.9547 54.1011 24.8138 54.0541 24.673C54.0072 24.5322 53.9133 24.4383 53.8193 24.3444C53.7254 24.2505 53.5845 24.2036 53.4906 24.1566C53.3497 24.1097 53.2089 24.1097 53.068 24.1097C52.7862 24.1097 52.5044 24.1566 52.2227 24.2975C51.9409 24.4383 51.6591 24.6261 51.3774 24.8608V23.828C51.5183 23.7341 51.6591 23.6403 51.8 23.5464C51.9409 23.4525 52.0818 23.4055 52.2227 23.3586C52.3636 23.3117 52.5514 23.2647 52.6923 23.2647C52.8801 23.2178 53.021 23.2178 53.2088 23.2178C53.4906 23.2178 53.7724 23.2647 54.0541 23.3586C54.2889 23.4525 54.5238 23.5464 54.7116 23.7341C54.8994 23.875 55.0403 24.0628 55.1342 24.2975C55.2282 24.5322 55.2751 24.8138 55.2751 25.0955C55.2751 25.3772 55.2282 25.6119 55.1812 25.8466C55.1342 26.0813 55.0403 26.2691 54.8994 26.4569C54.7586 26.6446 54.6177 26.8324 54.4298 26.9732C54.242 27.161 54.0541 27.3018 53.8193 27.4896C53.6315 27.6304 53.4437 27.7713 53.2558 27.9121C53.068 28.0529 52.9271 28.1938 52.7862 28.3346C52.6453 28.4754 52.5044 28.6162 52.4575 28.7571C52.3636 28.8979 52.3166 29.0387 52.3166 29.1796H55.369V30.0245V30.0245Z" fill="white"/>
<path d="M58.3745 30.1654C57.6701 30.1654 57.1065 29.8838 56.7308 29.3205C56.3552 28.7572 56.1204 27.9122 56.1204 26.8325C56.1204 25.6589 56.3082 24.72 56.7308 24.1098C57.1535 23.4995 57.717 23.1709 58.5154 23.1709C60.0181 23.1709 60.7225 24.3445 60.7225 26.6447C60.7225 27.7713 60.5347 28.6633 60.112 29.2735C59.7363 29.8368 59.1258 30.1654 58.3745 30.1654ZM58.5154 24.0628C57.717 24.0628 57.2944 24.9547 57.2944 26.7855C57.2944 28.4755 57.717 29.3205 58.5154 29.3205C59.3137 29.3205 59.6894 28.4755 59.6894 26.7386C59.6424 24.9547 59.2667 24.0628 58.5154 24.0628Z" fill="white"/>
<path d="M65.7004 30.0245H61.4739V29.5082C61.4739 29.2735 61.5208 29.0857 61.5678 28.8979C61.6148 28.7101 61.7087 28.5224 61.8026 28.3815C61.8965 28.1938 62.0374 28.0529 62.1783 27.9121C62.3192 27.7713 62.4601 27.6304 62.6009 27.4896C62.7418 27.3488 62.9297 27.208 63.0705 27.1141C63.2114 26.9732 63.3993 26.8793 63.5402 26.7385C63.681 26.5977 63.8219 26.5038 63.9158 26.363C64.0567 26.2691 64.1506 26.1283 64.2446 25.9874C64.3385 25.8466 64.3854 25.7527 64.4324 25.6119C64.4794 25.4711 64.4794 25.3302 64.4794 25.1424C64.4794 24.9547 64.4324 24.8138 64.3854 24.673C64.3385 24.5322 64.2446 24.4383 64.1506 24.3444C64.0567 24.2505 63.9158 24.2036 63.8219 24.1566C63.681 24.1097 63.5402 24.1097 63.3993 24.1097C63.1175 24.1097 62.8357 24.1566 62.554 24.2975C62.2722 24.4383 61.9904 24.6261 61.7087 24.8608V23.828C61.8496 23.7341 61.9905 23.6403 62.1313 23.5464C62.2722 23.4525 62.4131 23.4055 62.554 23.3586C62.6949 23.3117 62.8827 23.2647 63.0236 23.2647C63.2114 23.2178 63.3523 23.2178 63.5402 23.2178C63.8219 23.2178 64.1037 23.2647 64.3854 23.3586C64.6203 23.4525 64.8551 23.5464 65.0429 23.7341C65.2307 23.875 65.3716 24.0628 65.4655 24.2975C65.5595 24.5322 65.6064 24.8138 65.6064 25.0955C65.6064 25.3772 65.5595 25.6119 65.5125 25.8466C65.4656 26.0813 65.3716 26.2691 65.2307 26.4569C65.0899 26.6446 64.949 26.8324 64.7611 26.9732C64.5733 27.161 64.3854 27.3018 64.1506 27.4896C63.9628 27.6304 63.775 27.7713 63.5871 27.9121C63.3993 28.0529 63.2584 28.1938 63.1175 28.3346C62.9766 28.4754 62.8357 28.6162 62.7888 28.7571C62.6949 28.8979 62.6479 29.0387 62.6479 29.1796H65.7004V30.0245V30.0245Z" fill="white"/>
<path d="M68.7058 30.1654C68.0014 30.1654 67.4378 29.8838 67.0622 29.3205C66.6865 28.7572 66.4517 27.9122 66.4517 26.8325C66.4517 25.6589 66.6395 24.72 67.0622 24.1098C67.4848 23.4995 68.0483 23.1709 68.8467 23.1709C70.3494 23.1709 71.0538 24.3445 71.0538 26.6447C71.0538 27.7713 70.866 28.6633 70.4433 29.2735C70.0676 29.8368 69.4571 30.1654 68.7058 30.1654ZM68.7997 24.0628C68.0014 24.0628 67.5787 24.9547 67.5787 26.7855C67.5787 28.4755 68.0014 29.3205 68.7997 29.3205C69.598 29.3205 69.9737 28.4755 69.9737 26.7386C69.9737 24.9547 69.598 24.0628 68.7997 24.0628Z" fill="white"/>
<path d="M75.8908 32.3248H74.9985V22.7014H75.8908V32.3248Z" fill="white"/>
<path d="M80.2581 30.0247V23.3118H82.1834C84.6724 23.3118 85.8933 24.3915 85.8933 26.5978C85.8933 27.6305 85.5646 28.4755 84.8602 29.0858C84.1558 29.6961 83.2635 30.0247 82.0895 30.0247H80.2581V30.0247ZM81.3851 24.2506V29.0858H82.2774C83.0757 29.0858 83.6862 28.8511 84.1088 28.4286C84.5315 28.0061 84.7663 27.3958 84.7663 26.5978C84.7663 25.0017 83.968 24.2506 82.3243 24.2506H81.3851V24.2506Z" fill="white"/>
<path d="M87.5371 24.2035C87.3492 24.2035 87.2084 24.1566 87.0675 24.0157C86.9266 23.9218 86.8796 23.7341 86.8796 23.5932C86.8796 23.4055 86.9266 23.2646 87.0675 23.1238C87.2084 22.983 87.3492 22.936 87.5371 22.936C87.7249 22.936 87.8658 22.983 88.0067 23.1238C88.1476 23.2646 88.1945 23.4055 88.1945 23.5932C88.1945 23.781 88.1476 23.9218 88.0067 24.0157C87.8658 24.1566 87.7249 24.2035 87.5371 24.2035ZM88.0536 30.0245H86.9736V25.2363H88.0536V30.0245Z" fill="white"/>
<path d="M93.8298 29.649C93.8298 31.4328 92.9375 32.2778 91.153 32.2778C90.5425 32.2778 89.979 32.1839 89.5094 31.9492V30.9634C90.026 31.245 90.5425 31.4328 91.0121 31.4328C92.1392 31.4328 92.7497 30.8695 92.7497 29.7428V29.2265C92.374 29.8367 91.8574 30.1653 91.1061 30.1653C90.5425 30.1653 90.026 29.9306 89.6972 29.5081C89.3215 29.0856 89.1807 28.5223 89.1807 27.7712C89.1807 26.9732 89.3685 26.316 89.7442 25.7996C90.1199 25.3302 90.6364 25.0955 91.3409 25.0955C91.9983 25.0955 92.4679 25.3771 92.7497 25.8935V25.2363H93.8298V29.649ZM92.7497 27.8182V27.2079C92.7497 26.8793 92.6558 26.5976 92.4209 26.3629C92.1861 26.1282 91.9044 25.9874 91.5757 25.9874C91.153 25.9874 90.8243 26.1282 90.5895 26.4568C90.3547 26.7854 90.2608 27.2079 90.2608 27.7243C90.2608 28.1937 90.3547 28.5693 90.5895 28.8509C90.8243 29.1326 91.1061 29.2734 91.4817 29.2734C91.8574 29.2734 92.1861 29.1326 92.4209 28.8509C92.6558 28.5693 92.7497 28.2407 92.7497 27.8182Z" fill="white"/>
<path d="M95.6611 24.2035C95.4733 24.2035 95.3324 24.1566 95.1915 24.0157C95.0506 23.9218 95.0037 23.7341 95.0037 23.5932C95.0037 23.4055 95.0506 23.2646 95.1915 23.1238C95.3324 22.983 95.4733 22.936 95.6611 22.936C95.849 22.936 95.9898 22.983 96.1307 23.1238C96.2716 23.2646 96.3186 23.4055 96.3186 23.5932C96.3186 23.781 96.2716 23.9218 96.1307 24.0157C96.0368 24.1566 95.849 24.2035 95.6611 24.2035ZM96.2247 30.0245H95.1445V25.2363H96.2247V30.0245Z" fill="white"/>
<path d="M100.123 29.9775C99.8877 30.0714 99.6059 30.1183 99.2772 30.1183C98.338 30.1183 97.8684 29.6489 97.8684 28.757V26.0812H97.0701V25.2362H97.8684V24.1096L98.9485 23.781V25.1893H100.123V26.0812H98.9485V28.4753C98.9485 28.757 98.9955 28.9448 99.0894 29.0856C99.1833 29.2264 99.3711 29.2734 99.6059 29.2734C99.7938 29.2734 99.9347 29.2264 100.076 29.1325V29.9775H100.123Z" fill="white"/>
<path d="M104.818 30.0245H103.738V29.2734C103.41 29.8367 102.94 30.1184 102.283 30.1184C101.813 30.1184 101.437 29.9776 101.156 29.7428C100.874 29.5081 100.733 29.1326 100.733 28.7101C100.733 27.8182 101.249 27.2548 102.283 27.114L103.691 26.9262C103.691 26.2221 103.363 25.8935 102.705 25.8935C102.142 25.8935 101.625 26.0813 101.156 26.5038V25.5649C101.672 25.2832 102.236 25.0955 102.893 25.0955C104.114 25.0955 104.725 25.7057 104.725 26.8793V30.0245H104.818ZM103.738 27.6773L102.705 27.8182C102.377 27.8651 102.142 27.9121 102.001 28.0529C101.86 28.1468 101.766 28.3815 101.766 28.6162C101.766 28.804 101.86 28.9918 102.001 29.1326C102.142 29.2734 102.33 29.3204 102.564 29.3204C102.893 29.3204 103.175 29.2265 103.41 28.9917C103.644 28.757 103.738 28.4754 103.738 28.0998V27.6773Z" fill="white"/>
<path d="M107.167 30.0245H106.086V22.936H107.167V30.0245Z" fill="white"/>
<path d="M115.338 27.9122H112.051C112.051 28.3347 112.191 28.7103 112.473 28.945C112.755 29.1797 113.084 29.3205 113.553 29.3205C114.07 29.3205 114.539 29.1797 114.962 28.8511V29.743C114.539 30.0247 113.929 30.1655 113.225 30.1655C112.52 30.1655 111.957 29.9308 111.581 29.5083C111.158 29.0858 110.97 28.4756 110.97 27.6775C110.97 26.9264 111.205 26.3162 111.628 25.8467C112.051 25.3773 112.614 25.1426 113.272 25.1426C113.929 25.1426 114.446 25.3773 114.821 25.7998C115.197 26.2223 115.385 26.8325 115.385 27.5836V27.9122H115.338ZM114.258 27.1611C114.258 26.7856 114.164 26.457 113.976 26.2692C113.788 26.0345 113.553 25.9406 113.225 25.9406C112.896 25.9406 112.661 26.0345 112.426 26.2692C112.191 26.5039 112.098 26.7856 112.004 27.1611H114.258Z" fill="white"/>
<path d="M120.409 25.2363L118.531 30.0245H117.357L115.573 25.2363H116.747L117.827 28.6162C117.921 28.851 117.968 29.0857 117.968 29.2734C118.014 29.0387 118.061 28.851 118.108 28.6632L119.235 25.2833H120.409V25.2363Z" fill="white"/>
<path d="M125.059 27.9122H121.771C121.771 28.3347 121.912 28.7103 122.194 28.945C122.476 29.1797 122.804 29.3205 123.274 29.3205C123.791 29.3205 124.26 29.1797 124.683 28.8511V29.743C124.26 30.0247 123.65 30.1655 122.945 30.1655C122.241 30.1655 121.677 29.9308 121.302 29.5083C120.879 29.0858 120.691 28.4756 120.691 27.6775C120.691 26.9264 120.926 26.3162 121.349 25.8467C121.771 25.3773 122.335 25.1426 122.992 25.1426C123.65 25.1426 124.166 25.3773 124.542 25.7998C124.918 26.2223 125.105 26.8325 125.105 27.5836V27.9122H125.059ZM124.025 27.1611C124.025 26.7856 123.931 26.457 123.744 26.2692C123.556 26.0345 123.321 25.9406 122.992 25.9406C122.664 25.9406 122.429 26.0345 122.194 26.2692C121.959 26.5039 121.865 26.7856 121.771 27.1611H124.025Z" fill="white"/>
<path d="M130.365 30.0247H129.285V27.302C129.285 26.41 128.956 25.9406 128.346 25.9406C128.017 25.9406 127.735 26.0814 127.501 26.3162C127.266 26.5509 127.172 26.8795 127.172 27.255V29.9777H126.092V25.2365H127.172V26.0345C127.548 25.4242 128.064 25.1426 128.722 25.1426C129.238 25.1426 129.661 25.3304 129.943 25.659C130.224 25.9876 130.365 26.5039 130.365 27.1142V30.0247Z" fill="white"/>
<path d="M134.169 29.9775C133.934 30.0714 133.652 30.1183 133.324 30.1183C132.384 30.1183 131.915 29.6489 131.915 28.757V26.0812H131.116V25.2362H131.915V24.1096L132.995 23.781V25.1893H134.169V26.0812H132.995V28.4753C132.995 28.757 133.042 28.9448 133.136 29.0856C133.23 29.2264 133.418 29.2734 133.652 29.2734C133.84 29.2734 133.981 29.2264 134.122 29.1325V29.9775H134.169Z" fill="white"/>
<path d="M98.2596 8.04417C99.0989 7.74806 99.7406 7.30391 100.234 6.66235C100.728 6.02079 100.975 5.32988 100.975 4.44157C100.975 3.45456 100.531 2.6156 99.6913 1.97404C98.852 1.33248 97.7165 1.03638 96.2848 1.03638H91.5454V15.8909H96.3342C97.8646 15.8909 99.1482 15.4961 100.136 14.7065C101.123 13.9169 101.617 12.8805 101.617 11.5974C101.617 10.5611 101.32 9.72209 100.679 9.08053C100.136 8.53768 99.2963 8.19222 98.2596 8.04417ZM94.0139 3.05975H95.7911C97.4697 3.05975 98.3583 3.70131 98.3583 4.98443C98.3583 5.72469 98.1115 6.3169 97.6178 6.7117C97.1241 7.10651 96.4329 7.30391 95.5937 7.30391H94.0139V3.05975ZM98.2596 13.374C97.7659 13.8182 97.0254 14.0156 96.1367 14.0156H94.0139V9.32729H95.7911C97.914 9.32729 99.0001 10.1169 99.0001 11.6468C99.0001 12.3377 98.7533 12.9299 98.2596 13.374Z" fill="white"/>
<path d="M110.306 11.4493C110.306 12.2883 110.059 12.9792 109.614 13.522C109.17 14.0649 108.578 14.3117 107.837 14.3117C106.356 14.3117 105.616 13.374 105.616 11.4493V5.32983H103.197V11.6961C103.197 14.7065 104.431 16.2363 106.949 16.2363C108.43 16.2363 109.516 15.5948 110.207 14.3117H110.256V15.9896H112.675V5.32983H110.306V11.4493Z" fill="white"/>
<path d="M116.378 0.394775C115.983 0.394775 115.637 0.542827 115.391 0.789581C115.094 1.03633 114.946 1.38179 114.946 1.77659C114.946 2.1714 115.094 2.51685 115.391 2.76361C115.687 3.01036 116.032 3.15841 116.378 3.15841C116.773 3.15841 117.119 3.01036 117.415 2.76361C117.711 2.51685 117.859 2.1714 117.859 1.82594C117.859 1.43114 117.711 1.08568 117.415 0.838931C117.168 0.493477 116.822 0.394775 116.378 0.394775Z" fill="white"/>
<path d="M117.612 5.32983H115.193V15.9402H117.612V5.32983Z" fill="white"/>
<path d="M122.451 0.246826H120.031V15.9897H122.451V0.246826Z" fill="white"/>
<path d="M132.176 0.246826V6.81046H132.127C131.485 5.6754 130.448 5.08319 129.017 5.08319C127.585 5.08319 126.4 5.62605 125.561 6.66241C124.672 7.69877 124.277 9.12994 124.277 10.9066C124.277 12.5351 124.672 13.8183 125.462 14.8053C126.252 15.7429 127.289 16.2364 128.622 16.2364C130.251 16.2364 131.436 15.5455 132.225 14.1637H132.275V15.9897H134.694V0.246826H132.176ZM132.225 11.104C132.225 12.0416 131.979 12.7819 131.436 13.3741C130.942 13.9663 130.251 14.2624 129.411 14.2624C128.572 14.2624 127.93 13.9663 127.437 13.3247C126.943 12.6832 126.696 11.8442 126.696 10.7585C126.696 9.5741 126.943 8.63644 127.486 7.94553C127.98 7.25462 128.72 6.95851 129.609 6.95851C130.349 6.95851 130.991 7.20527 131.485 7.74812C131.979 8.29098 132.225 8.93254 132.225 9.6728V11.104Z" fill="white"/>
<path d="M9.49445 10.413L8.80329 12.387H8.75392C8.60581 11.9428 8.40833 11.3013 8.11212 10.4623L4.36009 1.08569H0.706787V15.9402H3.12586V6.81037C3.12586 6.26751 3.12586 5.5766 3.07649 4.78699C3.07649 4.39219 3.02713 4.09608 3.02713 3.84933H3.07649C3.17523 4.39219 3.32334 4.83634 3.42208 5.13245L7.91465 15.9896H9.59319L14.0364 5.03375C14.1351 4.78699 14.2339 4.29349 14.3326 3.84933H14.382C14.3326 4.93504 14.2832 5.92206 14.2832 6.51426V15.9896H16.8504V1.08569H13.3452L9.49445 10.413Z" fill="white"/>
<path d="M21.738 5.32983H19.2202V15.9896H21.738V5.32983Z" fill="white"/>
<path d="M20.5038 0.789551C20.1089 0.789551 19.7139 0.937603 19.4177 1.18436C19.1215 1.48046 18.9734 1.82591 18.9734 2.22072C18.9734 2.61552 19.1215 2.96098 19.4177 3.25708C19.7139 3.50384 20.0595 3.65189 20.5038 3.65189C20.9481 3.65189 21.2937 3.50384 21.5899 3.25708C21.8862 2.96098 22.0343 2.61552 22.0343 2.22072C22.0343 1.82591 21.8862 1.48046 21.5899 1.18436C21.2937 0.937603 20.9481 0.789551 20.5038 0.789551Z" fill="white"/>
<path d="M30.6243 5.18174C30.1306 5.08304 29.6863 5.03369 29.242 5.03369C28.1065 5.03369 27.0698 5.28044 26.1811 5.77395C25.2925 6.26746 24.6507 6.95837 24.157 7.84668C23.7127 8.73499 23.4658 9.77135 23.4658 10.9064C23.4658 11.8934 23.7127 12.8311 24.157 13.6701C24.6013 14.509 25.2431 15.1012 26.033 15.5454C26.8229 15.9895 27.7609 16.2363 28.7977 16.2363C29.9825 16.2363 31.0193 15.9895 31.8092 15.5454H31.8585V13.2259L31.7598 13.3246C31.3648 13.5714 30.9699 13.8181 30.5256 13.9662C30.0813 14.1142 29.6863 14.2129 29.3407 14.2129C28.3533 14.2129 27.5634 13.9168 26.971 13.2752C26.3786 12.683 26.0824 11.7947 26.0824 10.7584C26.0824 9.67265 26.3786 8.78434 26.971 8.14278C27.5634 7.50122 28.3533 7.15577 29.3407 7.15577C30.18 7.15577 30.9699 7.45187 31.7104 7.99473L31.8092 8.09343V5.67525H31.7598C31.513 5.4285 31.118 5.28044 30.6243 5.18174Z" fill="white"/>
<path d="M38.8688 5.13257C38.2271 5.13257 37.684 5.32997 37.1903 5.72478C36.746 6.07023 36.4498 6.56374 36.2029 7.15595H36.1536V5.32997H33.6357V15.9897H36.1536V10.5118C36.1536 9.57413 36.351 8.83387 36.7954 8.24166C37.1903 7.64945 37.7334 7.4027 38.4245 7.4027C38.6714 7.4027 38.9182 7.45205 39.1651 7.5014C39.4613 7.55075 39.6094 7.64945 39.7575 7.74815L39.8562 7.84685V5.32997H39.8069C39.6587 5.18192 39.3132 5.13257 38.8688 5.13257Z" fill="white"/>
<path d="M45.6818 5.03369C43.9045 5.03369 42.5222 5.5272 41.5348 6.56356C40.5474 7.59992 40.0537 8.98174 40.0537 10.7584C40.0537 12.4363 40.5474 13.7688 41.5348 14.7558C42.5222 15.7428 43.8057 16.2363 45.4843 16.2363C47.2122 16.2363 48.5452 15.6934 49.5325 14.7064C50.5199 13.6701 51.0136 12.2882 51.0136 10.561C51.0136 8.88304 50.5199 7.50122 49.5819 6.56356C48.6933 5.5272 47.3603 5.03369 45.6818 5.03369ZM47.7059 13.2752C47.2122 13.8675 46.521 14.1636 45.583 14.1636C44.645 14.1636 43.9539 13.8675 43.4108 13.2752C42.9171 12.683 42.6209 11.7947 42.6209 10.709C42.6209 9.57395 42.8677 8.68564 43.4108 8.09343C43.9045 7.50122 44.645 7.15577 45.5337 7.15577C46.4223 7.15577 47.1135 7.45187 47.6072 8.04408C48.1008 8.63629 48.3477 9.5246 48.3477 10.6597C48.3971 11.7947 48.1502 12.683 47.7059 13.2752Z" fill="white"/>
<path d="M56.5923 9.72197C55.8024 9.42587 55.3087 9.12976 55.0619 8.93236C54.8644 8.73496 54.7657 8.43885 54.7657 8.0934C54.7657 7.79729 54.9138 7.55054 55.1606 7.35314C55.4075 7.15573 55.8024 7.05703 56.2467 7.05703C56.6911 7.05703 57.086 7.10638 57.5303 7.25444C57.9746 7.40249 58.3202 7.55054 58.6658 7.79729L58.7645 7.84664V5.52716H58.7152C58.419 5.37911 58.024 5.28041 57.5797 5.23106C57.1354 5.13236 56.6911 5.08301 56.3455 5.08301C55.1606 5.08301 54.1732 5.37911 53.3833 5.97132C52.6428 6.56353 52.2479 7.35314 52.2479 8.34015C52.2479 8.83366 52.3466 9.27781 52.4947 9.67262C52.6428 10.0674 52.939 10.3635 53.2352 10.6596C53.5808 10.9557 54.0745 11.2025 54.7657 11.4986C55.3581 11.7453 55.753 11.9427 56.0493 12.0908C56.2961 12.2389 56.4936 12.3869 56.5923 12.535C56.6911 12.683 56.7404 12.8804 56.7404 13.1272C56.7404 13.8674 56.1974 14.2129 55.1112 14.2129C54.7163 14.2129 54.2226 14.1142 53.7289 13.9661C53.2352 13.8181 52.7415 13.5713 52.2972 13.2259L52.1985 13.1272V15.5947H52.2479C52.5934 15.7427 53.0378 15.8908 53.5808 15.9895C54.1239 16.0882 54.6176 16.1376 55.0125 16.1376C56.2961 16.1376 57.3328 15.8414 58.1228 15.1999C58.9127 14.6077 59.2582 13.7687 59.2582 12.7817C59.2582 12.0414 59.0608 11.4492 58.6164 10.9557C58.2709 10.5609 57.5797 10.1168 56.5923 9.72197Z" fill="white"/>
<path d="M66.0712 5.03369C64.2939 5.03369 62.9116 5.5272 61.9242 6.56356C60.9368 7.59992 60.4431 8.98174 60.4431 10.7584C60.4431 12.4363 60.9368 13.7688 61.9242 14.7558C62.9116 15.7428 64.1952 16.2363 65.8737 16.2363C67.6016 16.2363 68.9346 15.6934 69.9219 14.7064C70.9093 13.6701 71.403 12.2882 71.403 10.561C71.403 8.88304 70.9093 7.50122 69.9713 6.56356C69.0333 5.5272 67.7003 5.03369 66.0712 5.03369ZM68.0459 13.2752C67.5522 13.8675 66.8611 14.1636 65.9231 14.1636C64.9851 14.1636 64.2939 13.8675 63.7508 13.2752C63.2571 12.683 62.9609 11.7947 62.9609 10.709C62.9609 9.57395 63.2078 8.68564 63.7508 8.09343C64.2445 7.50122 64.9851 7.15577 65.8737 7.15577C66.7623 7.15577 67.4535 7.45187 67.9472 8.04408C68.4409 8.63629 68.6877 9.5246 68.6877 10.6597C68.7865 11.7947 68.5396 12.683 68.0459 13.2752Z" fill="white"/>
<path d="M82.215 2.12208L82.1162 2.17143L79.7465 2.91169H79.6971V5.32987H75.9451V3.94805C75.9451 3.30649 76.0932 2.86234 76.3401 2.51688C76.6363 2.22078 76.9819 2.02338 77.5249 2.02338C77.8705 2.02338 78.2654 2.12208 78.611 2.27013L78.7098 2.31948V0.197403H78.6604C78.3148 0.0493506 77.8211 0 77.2287 0C76.4882 0 75.797 0.148052 75.2046 0.493506C74.6121 0.78961 74.1678 1.28312 73.8222 1.87532C73.4767 2.46753 73.3286 3.10909 73.3286 3.84935V5.32987H71.5513V7.35325H73.3286V15.9896H75.8464V7.35325H79.5984V12.8312C79.5984 15.1013 80.6845 16.2364 82.758 16.2364C83.1036 16.2364 83.4492 16.187 83.8441 16.1377C84.2391 16.039 84.4859 15.9896 84.634 15.8909H84.6834V13.8182H84.634C84.4859 13.9169 84.3378 13.9662 84.1403 14.0649C83.9429 14.1143 83.7454 14.1636 83.6467 14.1636C83.153 14.1636 82.8074 14.0156 82.5605 13.7688C82.3137 13.5221 82.215 13.0286 82.215 12.387V7.35325H84.7328V5.32987H82.215V2.12208V2.12208Z" fill="white"/>
</g>
<defs>
<clipPath id="clip0">
<rect x="0.706787" width="134.081" height="32.5714" fill="white"/>
</clipPath>
</defs>
</svg>
